<svg width="28" height="28" viewBox="0 0 28 28" fill="none" xmlns="http://www.w3.org/2000/svg">
<path d="M20.6005 21.7663C18.8501 23.5165 16.4762 24.4999 14.0008 24.4999C11.5255 24.4999 9.15149 23.5165 7.40114 21.7663C5.65081 20.0159 4.66748 17.6419 4.66748 15.1666V7.23321C4.66748 6.6144 4.91331 6.0209 5.3509 5.58332C5.78848 5.14574 6.38198 4.8999 7.00081 4.8999H8.1675C8.7863 4.8999 9.37983 5.14574 9.8174 5.58332C10.255 6.0209 10.5008 6.6144 10.5008 7.23321V15.1666C10.5008 16.0948 10.8696 16.9851 11.526 17.6414C12.1823 18.2978 13.0725 18.6666 14.0008 18.6666C14.9291 18.6666 15.8193 18.2978 16.4757 17.6414C17.1321 16.9851 17.5008 16.0948 17.5008 15.1666V7.23321C17.5008 6.6144 17.7467 6.0209 18.1842 5.58332C18.6218 5.14574 19.2153 4.8999 19.8341 4.8999H21.0008C21.6197 4.8999 22.2131 5.14574 22.6507 5.58332C23.0883 6.0209 23.3341 6.6144 23.3341 7.23321V12.5999M4.66748 10.7332H10.5008M17.5008 10.7332H22.1675M23.3341 16.7081V19.7414M23.3341 22.5414V22.5531" stroke="black" stroke-width="1.4" stroke-linecap="round" stroke-linejoin="round"/>
</svg>
