<svg width="28" height="28" viewBox="0 0 28 28" fill="none" xmlns="http://www.w3.org/2000/svg">
<path d="M11.6675 23.3333C11.6675 23.9522 11.9133 24.5456 12.3509 24.9833C12.7885 25.4208 13.3819 25.6667 14.0008 25.6667C14.6197 25.6667 15.2131 25.4208 15.6507 24.9833C16.0883 24.5456 16.3341 23.9522 16.3341 23.3333M11.6675 23.3333C11.6675 22.7145 11.9133 22.121 12.3509 21.6834C12.7885 21.2458 13.3819 21 14.0008 21C14.6197 21 15.2131 21.2458 15.6507 21.6834C16.0883 22.121 16.3341 22.7145 16.3341 23.3333M11.6675 23.3333H4.66748M16.3341 23.3333H23.3341M14.0008 7V9.33331M14.0008 12.8333V12.845M14.0008 17.5L11.6675 15.1667H8.1675C7.85803 15.1667 7.5613 15.0438 7.34255 14.8249C7.12373 14.6061 7.00081 14.3094 7.00081 14V4.66667C7.00081 4.35725 7.12373 4.0605 7.34255 3.84171C7.5613 3.62291 7.85803 3.5 8.1675 3.5H19.8341C20.1436 3.5 20.4403 3.62291 20.6591 3.84171C20.8779 4.0605 21.0008 4.35725 21.0008 4.66667V14C21.0008 14.3094 20.8779 14.6061 20.6591 14.8249C20.4403 15.0438 20.1436 15.1667 19.8341 15.1667H16.3341L14.0008 17.5Z" stroke="black" stroke-width="1.4" stroke-linecap="round" stroke-linejoin="round"/>
</svg>
