<svg width="28" height="28" viewBox="0 0 28 28" fill="none" xmlns="http://www.w3.org/2000/svg">
<path d="M4.66667 8.16669H8.16669C8.47609 8.16669 8.77282 8.04377 8.99164 7.82495C9.21039 7.6062 9.33331 7.3094 9.33331 7V5.83333C9.33331 5.2145 9.57915 4.621 10.0167 4.18342C10.4544 3.74583 11.0478 3.5 11.6667 3.5C12.2855 3.5 12.879 3.74583 13.3166 4.18342C13.7542 4.621 14 5.2145 14 5.83333V7C14 7.3094 14.1229 7.6062 14.3417 7.82495C14.5605 8.04377 14.8572 8.16669 15.1667 8.16669H18.6667C18.9761 8.16669 19.2728 8.28961 19.4916 8.50836C19.7104 8.72718 19.8333 9.02391 19.8333 9.33331V12.8333C19.8333 13.1428 19.9562 13.4395 20.1751 13.6583C20.3938 13.8771 20.6906 14 21 14H22.1667C22.7855 14 23.379 14.2458 23.8166 14.6834C24.2542 15.121 24.5 15.7145 24.5 16.3333C24.5 16.9522 24.2542 17.5456 23.8166 17.9833C23.379 18.4208 22.7855 18.6667 22.1667 18.6667H21C20.6906 18.6667 20.3938 18.7896 20.1751 19.0084C19.9562 19.2272 19.8333 19.5239 19.8333 19.8333V23.3333C19.8333 23.6428 19.7104 23.9395 19.4916 24.1583C19.2728 24.3771 18.9761 24.5 18.6667 24.5H15.1667C14.8572 24.5 14.5605 24.3771 14.3417 24.1583C14.1229 23.9395 14 23.6428 14 23.3333V22.1667C14 21.5478 13.7542 20.9544 13.3166 20.5167C12.879 20.0792 12.2855 19.8333 11.6667 19.8333C11.0478 19.8333 10.4544 20.0792 10.0167 20.5167C9.57915 20.9544 9.33331 21.5478 9.33331 22.1667V23.3333C9.33331 23.6428 9.21039 23.9395 8.99164 24.1583C8.77282 24.3771 8.47609 24.5 8.16669 24.5H4.66667C4.35725 24.5 4.0605 24.3771 3.84171 24.1583C3.62291 23.9395 3.5 23.6428 3.5 23.3333V19.8333C3.5 19.5239 3.62291 19.2272 3.84171 19.0084C4.0605 18.7896 4.35725 18.6667 4.66667 18.6667H5.83333C6.45217 18.6667 7.04564 18.4208 7.48328 17.9833C7.92085 17.5456 8.16669 16.9522 8.16669 16.3333C8.16669 15.7145 7.92085 15.121 7.48328 14.6834C7.04564 14.2458 6.45217 14 5.83333 14H4.66667C4.35725 14 4.0605 13.8771 3.84171 13.6583C3.62291 13.4395 3.5 13.1428 3.5 12.8333V9.33331C3.5 9.02391 3.62291 8.72718 3.84171 8.50836C4.0605 8.28961 4.35725 8.16669 4.66667 8.16669Z" stroke="black" stroke-width="1.4" stroke-linecap="round" stroke-linejoin="round"/>
</svg>
